# xmcd CD database file generated by libcdaudio 0.99.1
# 
# Track frame offsets:
#       150
#       5988
#       17245
#       24974
#       39978
#       52110
#       65948
#       81773
#       92071
#       98888
#       114590
#       127121
#       134129
#       141563
# 
# Disc length: 2395 seconds
# 
# Revision: 1
# Processed by: cddbd v1.4PL0 Copyright (c) Steve Scherf et al.
# Submitted via: libcdaudio 0.99.1
# 
DISCID=d309590e
DTITLE=Various Artist - Per non crescere
DYEAR=1900
DGENRE=
TTITLE0=Silvia Saint - Moravagine
TTITLE1=Occasioni perse - Moravagine
TTITLE2=Liberi di sognare - Moravagine
TTITLE3=Ricordi pignorati - Moravagine
TTITLE4=Supercapra - Moravagine
TTITLE5=Sfigati al ballo - Moravagine
TTITLE6=Stai con me - Moravagine
TTITLE7=Il saggio disse - Moravagine
TTITLE8=Vizi - Moravagine
TTITLE9=Piccolo Mike - Moravagine
TTITLE10=Padre polacco - Moravagine
TTITLE11=Spera e rispera - Moravagine
TTITLE12=Indietro - Moravagine
TTITLE13=Sborate - Moravagine
EXTD=
EXTT0=
EXTT1=
EXTT2=
EXTT3=
EXTT4=
EXTT5=
EXTT6=
EXTT7=
EXTT8=
EXTT9=
EXTT10=
EXTT11=
EXTT12=
EXTT13=
PLAYORDER=
